<svg width="89" height="48" viewBox="0 0 89 48" fill="none" xmlns="http://www.w3.org/2000/svg">
<path d="M5.14237 41.1651C5.60045 41.4932 6.02147 41.9891 6.40546 42.6531C6.79617 43.3091 6.99153 43.9769 6.99153 44.6564C6.99153 45.3984 6.82648 46.0116 6.49639 46.4959C6.05178 47.1441 5.3512 47.4682 4.39463 47.4682C3.16187 47.4682 2.26255 46.5545 1.69669 44.7267C1.41376 43.813 1.25545 42.9693 1.22177 42.1961H0.666016L1.11062 47.6675H2.91935C3.26965 47.8001 3.65361 47.8666 4.07128 47.8666C5.44551 47.8666 6.54355 47.4409 7.36539 46.5895C8.14009 45.7851 8.52743 44.7619 8.52743 43.5201C8.52743 41.5518 7.73927 40.099 6.16294 39.1617L5.23332 38.4588H5.1929L4.05107 37.6387C3.59299 37.3107 3.18545 36.8381 2.82842 36.2211C2.41075 35.5181 2.20192 34.8269 2.20192 34.1474C2.20192 33.4053 2.36696 32.7922 2.69705 32.308C3.14166 31.6597 3.84224 31.3357 4.79882 31.3357C6.03158 31.3357 6.93089 32.2494 7.49675 34.077C7.77968 34.9909 7.93798 35.8383 7.97167 36.6194H8.52743L8.08282 31.1364H6.27409C5.9238 31.0036 5.53983 30.9373 5.12216 30.9373C3.74794 30.9373 2.64989 31.363 1.82805 32.2143C1.05336 33.0188 0.666016 34.042 0.666016 35.2838C0.666016 37.0334 1.45418 38.4861 3.0305 39.642L5.14237 41.1651Z" fill="black"/>
<path d="M20.9968 31.4878V31.113H18.4099V31.4878H19.6123V42.9928C19.6123 45.8202 18.6254 47.2339 16.6517 47.2339C14.6779 47.2339 13.691 45.8202 13.691 42.9928V31.4878H14.6611V31.113H11.0537V31.4878H11.9631V42.9928C11.9631 46.2341 13.2936 47.8549 15.9545 47.8549C18.6153 47.8549 19.9459 46.2341 19.9459 42.9928V31.4878H20.9968Z" fill="black"/>
<path d="M25.6852 47.2691V31.4878H26.6249V31.113H23.0176V31.4878H23.9977V47.2691H23.0176V47.6439H31.6469L32.1016 42.1609H31.5459C31.5594 42.8092 31.4751 43.5044 31.2933 44.2464C31.1383 44.9024 30.9194 45.4688 30.6364 45.9451C30.2861 46.5466 29.8449 46.9879 29.3128 47.2691H25.6852Z" fill="black"/>
<path d="M38.5277 31.113L34.9104 47.2691H33.8291V47.6439H36.4261V47.2691H35.2438L36.3452 42.3366H40.8922L42.0139 47.2691H41.0742V47.6439H44.6816V47.2691H43.7014L40.0132 31.113H38.5277ZM38.5985 32.2962L40.8013 41.9618H36.4361L38.5985 32.2962Z" fill="black"/>
<path d="M55.7361 31.113L52.8058 43.9651L49.5218 31.113H46.7026V31.4878H47.8345V47.2691H46.7026V47.6439H49.2996V47.2691H48.1678V32.5891L52.0178 47.5151L52.331 47.5034L55.7868 32.3665V47.2691H54.8065V47.6439H58.4038V47.2691H57.4742V31.4878H58.4038V31.113H55.7361Z" fill="black"/>
<path d="M60.9302 31.113V31.4878H61.9407V47.2691H60.9302V47.6439H64.6386V47.2691H63.6282V31.4878H64.6386V31.113H60.9302Z" fill="black"/>
<path d="M74.2278 47.6439V47.2691H73.2578V31.4878H74.8644C75.8278 32.0033 76.4878 33.0071 76.8449 34.4989C77.0201 35.2486 77.1043 35.9477 77.0975 36.5959H77.6534L77.1985 31.113H67.6295L67.1748 36.5959H67.7305C67.717 35.9477 67.8013 35.2486 67.9831 34.4989C68.3402 33.0071 69.0004 32.0033 69.9637 31.4878H71.5703V47.2691H70.5902V47.6439H74.2278Z" fill="black"/>
<path d="M82.766 31.113L79.1485 47.2691H78.0674V47.6439H80.6642V47.2691H79.482L80.5835 42.3366H85.1305L86.2521 47.2691H85.3123V47.6439H88.9197V47.2691H87.9396L84.2513 31.113H82.766ZM82.8366 32.2962L85.0395 41.9618H80.6744L82.8366 32.2962Z" fill="black"/>
<path d="M7.63911 1.07534C10.6994 1.07534 12.2295 3.27123 12.2295 7.66297V7.92407C12.2295 10.4681 11.8888 12.2087 11.2075 13.146C10.5377 14.0698 9.3136 14.5318 7.53518 14.5318H4.57308V1.07534H7.63911ZM6.18404 28.1288H4.57308V15.1745H6.18404C8.0433 15.1745 9.47527 15.777 10.48 16.9821C11.5655 18.2942 12.1082 20.2759 12.1082 22.927V24.9153C12.1082 26.482 12.3161 27.5932 12.7318 28.2493C13.1707 28.9322 13.9155 29.2735 14.9664 29.2735C15.7632 29.2735 16.3348 29.0795 16.6813 28.6912C17.0623 28.2493 17.253 27.5196 17.253 26.502V26.2208H16.7507V26.502C16.7507 27.7606 16.4099 28.3899 15.7286 28.3899C15.0704 28.3899 14.7412 27.7271 14.7412 26.4016V21.039C14.7412 19.6064 14.4294 18.3813 13.8058 17.3637C13.1129 16.239 12.062 15.4556 10.6532 15.0138C12.1313 14.813 13.2053 14.3376 13.8751 13.5878C14.6604 12.7041 15.053 11.325 15.053 9.45047V6.15666C15.053 2.34064 12.9513 0.432648 8.74773 0.432648H0V1.07534H1.68026V28.1288H0V28.7714H6.18404V28.1288Z" fill="#AC8A74"/>
<path d="M27.733 0.452728L21.5317 28.1488H19.6782V28.7916H24.1301V28.1488H22.1034L23.9916 19.6934H31.7865L33.7093 28.1488H32.0983V28.7916H38.2824V28.1488H36.6022L30.2795 0.452728H27.733ZM27.8543 2.48123L31.6307 19.0508H24.1474L27.8543 2.48123Z" fill="#AC8A74"/>
<path d="M46.3198 28.1488V1.09542H49.4378C50.4193 1.09542 51.4067 1.43686 52.3998 2.11971C54.3746 3.69969 55.362 6.7391 55.362 11.238V18.1268C55.362 22.4918 54.3746 25.471 52.3998 27.0643C51.4067 27.8676 50.4193 28.2292 49.4378 28.1488H46.3198ZM58.3068 11.1375C58.3068 7.70983 57.3309 5.02524 55.3793 3.08376C53.8088 1.32974 51.9148 0.452728 49.6975 0.452728H41.7466V1.09542H43.427V28.1488H41.7466V28.7916H49.6975C51.961 28.7916 53.9068 27.9346 55.5351 26.2208C57.3829 24.2525 58.3068 21.5948 58.3068 18.2474V11.1375Z" fill="#AC8A74"/>
<path d="M62.6372 0.452728V1.09542H64.3694V28.1488H62.6372V28.7916H68.9944V28.1488H67.2622V1.09542H68.9944V0.452728H62.6372Z" fill="#AC8A74"/>
<path d="M85.0521 22.6659C85.0521 26.6425 83.6318 28.6309 80.7909 28.6309C77.9616 28.6309 76.5469 26.6425 76.5469 22.6659V7.06044C76.5469 5.1993 76.8415 3.72646 77.4304 2.6419C78.1579 1.32974 79.278 0.673651 80.7909 0.673651C82.3153 0.673651 83.4412 1.32974 84.1688 2.6419C84.7577 3.72646 85.0521 5.1993 85.0521 7.06044V22.6659ZM80.7909 0.131378C78.2849 0.131378 76.3795 1.08203 75.0746 2.98333C73.9197 4.67042 73.3423 6.95332 73.3423 9.83206V19.8943C73.3423 22.7329 73.9197 24.9488 75.0746 26.5421C76.3564 28.2827 78.2618 29.153 80.7909 29.153C83.3315 29.153 85.2369 28.2827 86.5073 26.5421C87.6737 24.9488 88.2567 22.7329 88.2567 19.8943V9.83206C88.2567 6.95332 87.6737 4.67042 86.5073 2.98333C85.2138 1.08203 83.3084 0.131378 80.7909 0.131378Z" fill="#AC8A74"/>
</svg>
